<svg width="800" height="600" viewBox="0 0 800 600" fill="none" xmlns="http://www.w3.org/2000/svg" preserveAspectRatio="xMidYMid slice">
  <defs>
    <linearGradient id="bgGrad2008" x1="0%" y1="0%" x2="100%" y2="100%">
      <stop offset="0%" style="stop-color:#1e293b"/>
      <stop offset="100%" style="stop-color:#0f172a"/>
    </linearGradient>
  </defs>
  <rect width="800" height="600" fill="url(#bgGrad2008)"/>
  <circle cx="400" cy="250" r="120" fill="#f97316" opacity="0.15"/>
  <path d="M280 320 C280 320, 320 280, 400 280 C480 280, 520 320, 520 320" stroke="#f97316" stroke-width="4" fill="none" opacity="0.5"/>
  <path d="M300 340 C300 340, 340 300, 400 300 C460 300, 500 340, 500 340" stroke="#f97316" stroke-width="4" fill="none" opacity="0.3"/>
  <circle cx="350" cy="280" r="15" fill="#f97316" opacity="0.8"/>
  <circle cx="450" cy="280" r="15" fill="#f97316" opacity="0.8"/>
  <circle cx="400" cy="240" r="15" fill="#f97316" opacity="0.8"/>
  <path d="M350 280 L400 240 L450 280" stroke="#f97316" stroke-width="3" fill="none"/>
  <rect x="250" y="400" width="300" height="20" rx="10" fill="#334155"/>
  <rect x="280" y="440" width="240" height="15" rx="7" fill="#475569"/>
  <text x="400" y="100" text-anchor="middle" fill="#f97316" font-size="24" font-weight="bold" font-family="system-ui">2008</text>
  <text x="400" y="540" text-anchor="middle" fill="#94a3b8" font-size="18" font-family="system-ui">Birth of the Idea</text>
</svg>
