<svg width="800" height="600" viewBox="0 0 800 600" fill="none" xmlns="http://www.w3.org/2000/svg" preserveAspectRatio="xMidYMid slice">
  <defs>
    <linearGradient id="bgGrad" x1="0%" y1="0%" x2="100%" y2="100%">
      <stop offset="0%" style="stop-color:#1e293b"/>
      <stop offset="100%" style="stop-color:#0f172a"/>
    </linearGradient>
    <linearGradient id="circuitGrad" x1="0%" y1="0%" x2="100%" y2="100%">
      <stop offset="0%" style="stop-color:#f97316"/>
      <stop offset="100%" style="stop-color:#fb923c"/>
    </linearGradient>
  </defs>
  <rect width="800" height="600" fill="url(#bgGrad)"/>
  <circle cx="400" cy="300" r="150" fill="none" stroke="url(#circuitGrad)" stroke-width="2" opacity="0.3"/>
  <circle cx="400" cy="300" r="100" fill="none" stroke="url(#circuitGrad)" stroke-width="2" opacity="0.5"/>
  <circle cx="400" cy="300" r="50" fill="url(#circuitGrad)" opacity="0.2"/>
  <path d="M200 300 L250 300 M550 300 L600 300 M400 150 L400 200 M400 400 L400 450" stroke="url(#circuitGrad)" stroke-width="3" stroke-linecap="round"/>
  <circle cx="250" cy="300" r="8" fill="#f97316"/>
  <circle cx="600" cy="300" r="8" fill="#f97316"/>
  <circle cx="400" cy="200" r="8" fill="#f97316"/>
  <circle cx="400" cy="400" r="8" fill="#f97316"/>
  <path d="M320 280 L360 320 M440 280 L400 320" stroke="#fb923c" stroke-width="4" stroke-linecap="round"/>
  <text x="400" y="50" text-anchor="middle" fill="#f97316" font-size="24" font-weight="bold" font-family="system-ui">2026</text>
  <text x="400" y="560" text-anchor="middle" fill="#94a3b8" font-size="18" font-family="system-ui">Technology Leadership</text>
</svg>
